<svg class="gh-icon" xmlns="http://www.w3.org/2000/svg" viewBox="0 0 16 16"><defs><style>.gh-icon-cls-1{fill:#c5c8ca;}</style></defs><title>gh-icon</title><path class="gh-icon-inner gh-icon-cls-1" d="M11.11.63a8.23,8.23,0,0,1,2.54,1.71,8,8,0,0,1,1.72,2.54A7.77,7.77,0,0,1,16,8a7.72,7.72,0,0,1-.63,3.11,8.11,8.11,0,0,1-4.26,4.26A7.72,7.72,0,0,1,8,16a7.72,7.72,0,0,1-3.11-.63A8.11,8.11,0,0,1,.63,11.11,7.72,7.72,0,0,1,0,8,7.77,7.77,0,0,1,.63,4.88,8,8,0,0,1,2.35,2.34,8.23,8.23,0,0,1,4.89.63,7.72,7.72,0,0,1,8,0,7.72,7.72,0,0,1,11.11.63ZM13.54,8.5a3.83,3.83,0,0,0-.9-2.63,3.78,3.78,0,0,0,.17-1.11,3.51,3.51,0,0,0-.32-1.45,2.91,2.91,0,0,0-1.26.27,5.87,5.87,0,0,0-.57.33c-.2.13-.43.29-.67.47a7.27,7.27,0,0,0-1.85-.23,7.08,7.08,0,0,0-1,.07c-.34,0-.67.11-1,.18a6.28,6.28,0,0,0-1.26-.82A2.88,2.88,0,0,0,3.6,3.31a3.19,3.19,0,0,0-.34,1.45,3.86,3.86,0,0,0,.17,1.13,3.88,3.88,0,0,0-.9,2.62A4.87,4.87,0,0,0,3,10.71a2.32,2.32,0,0,0,.95,1.06,4.66,4.66,0,0,0,1.33.56,5.85,5.85,0,0,0,1,.21l.52.06a3.22,3.22,0,0,0,.44,0l.44,0H8.72l.53,0,.53-.06.6-.1a5.35,5.35,0,0,0,1.13-.31,3.74,3.74,0,0,0,.94-.58,3.12,3.12,0,0,0,.71-.87A5.43,5.43,0,0,0,13.54,8.5Zm-1.93-.19a2.07,2.07,0,0,1,.46,1.36,2.12,2.12,0,0,1-.22,1,2.37,2.37,0,0,1-.54.69,2.15,2.15,0,0,1-.8.4,4.27,4.27,0,0,1-.93.19,9.62,9.62,0,0,1-1,0H7.47a9.54,9.54,0,0,1-1,0,5.22,5.22,0,0,1-.94-.19,1.94,1.94,0,0,1-.8-.4,2.05,2.05,0,0,1-.53-.69,2.25,2.25,0,0,1-.21-1,2.11,2.11,0,0,1,.46-1.36,1.53,1.53,0,0,1,1.24-.55,3.5,3.5,0,0,1,.47,0L7,7.9c.15,0,.32,0,.5.06a5,5,0,0,0,.55,0l.53,0a4,4,0,0,0,.5-.06l.83-.1a3.5,3.5,0,0,1,.47,0A1.49,1.49,0,0,1,11.61,8.31ZM6.75,9.93a1.94,1.94,0,0,0-.07-.8,1.44,1.44,0,0,0-.3-.52.61.61,0,0,0-.47-.23.72.72,0,0,0-.5.23,1.5,1.5,0,0,0-.33.78,2.12,2.12,0,0,0,0,.8,1.44,1.44,0,0,0,.3.52.64.64,0,0,0,.49.23.65.65,0,0,0,.48-.23A1.45,1.45,0,0,0,6.75,9.93Zm4.24,0a1.78,1.78,0,0,0-.09-.8,1.26,1.26,0,0,0-.28-.52.61.61,0,0,0-.47-.23.72.72,0,0,0-.5.23,1.5,1.5,0,0,0-.33.78,2.12,2.12,0,0,0,0,.8,1.44,1.44,0,0,0,.3.52.64.64,0,0,0,.49.23.65.65,0,0,0,.48-.23A1.45,1.45,0,0,0,11,9.93Z"/></svg>
