<svg class="li-icon" xmlns="http://www.w3.org/2000/svg" viewBox="0 0 16 16"><defs><style>.li-icon-cls-1{fill:#c5c8ca;}</style></defs><title>li-icon</title><path class="li-icon-inner li-icon-cls-1" d="M11.11.63a8.12,8.12,0,0,1,2.54,1.71,7.93,7.93,0,0,1,1.72,2.53A7.77,7.77,0,0,1,16,8a7.77,7.77,0,0,1-.63,3.12,8,8,0,0,1-1.72,2.54,8.26,8.26,0,0,1-2.54,1.72A7.77,7.77,0,0,1,8,16a7.77,7.77,0,0,1-3.12-.63,7.93,7.93,0,0,1-2.53-1.72A8.23,8.23,0,0,1,.63,11.11,7.77,7.77,0,0,1,0,8,7.77,7.77,0,0,1,.63,4.87,8,8,0,0,1,4.87.63,7.77,7.77,0,0,1,8,0,7.77,7.77,0,0,1,11.11.63ZM5.21,5.2a1,1,0,0,0,0-1.42,1,1,0,0,0-.72-.29A1,1,0,0,0,3.78,5.2a1,1,0,0,0,.71.29A1,1,0,0,0,5.21,5.2ZM3.5,6v6.5h2V6Zm8.62,1.39a2.64,2.64,0,0,0-1-1,2.93,2.93,0,0,0-1.29-.33,3.16,3.16,0,0,0-1.35.25V6h-2v6.5h2v-4s.42-.31.58-.4A2.31,2.31,0,0,1,9.75,8a.71.71,0,0,1,.41.1.63.63,0,0,1,.23.25.64.64,0,0,1,.11.34V12.5h2V8.73A2.82,2.82,0,0,0,12.12,7.39Z"/></svg>
