<svg id="tliu-top" xmlns="http://www.w3.org/2000/svg" viewBox="0 0 34.96 42"><defs><style>.cls-1{fill:#007ecc;}</style></defs><title>logo</title><path id="tliu-top-bottom" class="cls-1" d="M10.24,33.13a7.18,7.18,0,0,1,.62,1.24l2.48,6.46a1.82,1.82,0,0,0,3.07.54L21,36.15a6.5,6.5,0,0,1,1-.95A33.38,33.38,0,0,1,16,34.68,33.1,33.1,0,0,1,10.24,33.13Z" transform="translate(-0.02 0)"/><path id="tliu-top-top" class="cls-1" d="M29.17,22.6A7,7,0,0,1,25.59,18L24,11.36a4.18,4.18,0,0,0-2.67-3l.84-4.74A1.85,1.85,0,0,0,23.6,2.14a1.83,1.83,0,1,0-2.79,1.21L20,8.09A4.18,4.18,0,0,0,16.44,10l-3.74,5.7a7,7,0,0,1-4.93,3.1C3.44,19.38.46,20.9.07,23.14c-.68,3.85,6.57,8.35,16.2,10s18,0,18.66-3.9C35.33,27.05,33,24.6,29.17,22.6Z" transform="translate(-0.02 0)"/></svg>