<svg id="scene-left" xmlns="http://www.w3.org/2000/svg" xmlns:xlink="http://www.w3.org/1999/xlink" viewBox="0 0 392.5 304"><defs><style>.scene-left-cls-1{fill:#007ecc;}.scene-left-cls-2{fill:#c14093;}.scene-left-cls-3{fill:#fff;}.scene-left-cls-4{fill:url(#scene-left-linear-gradient);}.scene-left-cls-5{fill:url(#scene-left-linear-gradient-2);}.scene-left-cls-6{fill:url(#scene-left-linear-gradient-3);}</style><linearGradient id="scene-left-linear-gradient" x1="112.07" y1="155.45" x2="112.07" y2="71.16" gradientTransform="matrix(1, 0, 0, -1, 0, 306)" gradientUnits="userSpaceOnUse"><stop offset="0" stop-color="#007ecc" stop-opacity="0.5"/><stop offset="1" stop-color="#007ecc"/><stop offset="1" stop-color="#007ecc"/></linearGradient><linearGradient id="scene-left-linear-gradient-2" x1="83.25" y1="52.5" x2="83.25" y2="2" gradientTransform="matrix(1, 0, 0, -1, -1.5, 305)" gradientUnits="userSpaceOnUse"><stop offset="0" stop-color="#fff"/><stop offset="0.26" stop-color="#fdfeff" stop-opacity="0.76"/><stop offset="0.4" stop-color="#f5fafd" stop-opacity="0.64"/><stop offset="0.51" stop-color="#e7f3fa" stop-opacity="0.54"/><stop offset="0.6" stop-color="#d4e9f6" stop-opacity="0.46"/><stop offset="0.69" stop-color="#bcddf2" stop-opacity="0.38"/><stop offset="0.76" stop-color="#9dcdeb" stop-opacity="0.31"/><stop offset="0.83" stop-color="#79bbe4" stop-opacity="0.25"/><stop offset="0.9" stop-color="#4fa6dc" stop-opacity="0.19"/><stop offset="0.96" stop-color="#218ed3" stop-opacity="0.13"/><stop offset="1" stop-color="#007ecc" stop-opacity="0.1"/></linearGradient><linearGradient id="scene-left-linear-gradient-3" x1="83.25" y1="1" x2="83.25" y2="53.5" gradientTransform="matrix(1, 0, 0, -1, 0, 306)" gradientUnits="userSpaceOnUse"><stop offset="0" stop-color="#007ecc" stop-opacity="0.5"/><stop offset="0.86" stop-color="#007ecc" stop-opacity="0.93"/><stop offset="1" stop-color="#007ecc"/></linearGradient></defs><title>home-left</title><path id="scene-left-star-5" class="scene-left-cls-1" d="M390,131.75c.65-.7,1.28-1.42,1.86-2.18A18.5,18.5,0,0,0,394,126a18.5,18.5,0,0,0-3.57,2.18c-.76.58-1.48,1.21-2.18,1.86-.7-.65-1.42-1.27-2.18-1.86A18.5,18.5,0,0,0,382.5,126a18.5,18.5,0,0,0,2.18,3.57c.58.76,1.21,1.48,1.86,2.18-.65.7-1.27,1.42-1.86,2.18a18.5,18.5,0,0,0-2.18,3.57,19,19,0,0,0,3.57-2.18c.76-.58,1.48-1.21,2.18-1.86.7.65,1.42,1.27,2.18,1.86A18.5,18.5,0,0,0,394,137.5a19,19,0,0,0-2.18-3.57C391.24,133.17,390.61,132.45,390,131.75Z" transform="translate(-1.5 -1)"/><path id="scene-left-star-4" class="scene-left-cls-1" d="M268.48,173.25c1.07-1.11,2.11-2.24,3.09-3.43A36.43,36.43,0,0,0,275,165a36.43,36.43,0,0,0-4.82,3.43c-1.19,1-2.32,2-3.43,3.09-1.11-1.07-2.24-2.11-3.43-3.09A36.43,36.43,0,0,0,258.5,165a36.43,36.43,0,0,0,3.43,4.82c1,1.19,2,2.32,3.09,3.43-1.07,1.11-2.1,2.24-3.09,3.43a36.43,36.43,0,0,0-3.43,4.82,38.08,38.08,0,0,0,4.82-3.43c1.19-1,2.32-2,3.43-3.09,1.11,1.07,2.24,2.11,3.43,3.09A36.43,36.43,0,0,0,275,181.5a38.08,38.08,0,0,0-3.43-4.82C270.58,175.49,269.54,174.36,268.48,173.25Z" transform="translate(-1.5 -1)"/><path id="scene-left-star-3" class="scene-left-cls-1" d="M254,97.75c.65-.7,1.28-1.42,1.86-2.18A18.5,18.5,0,0,0,258,92a18.5,18.5,0,0,0-3.57,2.18c-.76.58-1.48,1.21-2.18,1.86-.7-.65-1.42-1.27-2.18-1.86A18.5,18.5,0,0,0,246.5,92a18.5,18.5,0,0,0,2.18,3.57c.58.76,1.21,1.48,1.86,2.18-.65.7-1.27,1.42-1.86,2.18a18.5,18.5,0,0,0-2.18,3.57,19,19,0,0,0,3.57-2.18c.76-.58,1.48-1.21,2.18-1.86.7.65,1.42,1.27,2.18,1.86A18.5,18.5,0,0,0,258,103.5a19,19,0,0,0-2.18-3.57C255.24,99.17,254.61,98.45,254,97.75Z" transform="translate(-1.5 -1)"/><path id="scene-left-star-2" class="scene-left-cls-1" d="M228.44,62.25a17.3,17.3,0,0,0,1.13-1.43A10.68,10.68,0,0,0,231,58a10.68,10.68,0,0,0-2.82,1.43c-.5.35-1,.73-1.43,1.12a15.31,15.31,0,0,0-1.43-1.12A10.68,10.68,0,0,0,222.5,58a10.68,10.68,0,0,0,1.43,2.82,15.78,15.78,0,0,0,1.13,1.43,15.31,15.31,0,0,0-1.12,1.43,10.83,10.83,0,0,0-1.43,2.82,11,11,0,0,0,2.82-1.43,15.78,15.78,0,0,0,1.43-1.13,17.3,17.3,0,0,0,1.43,1.13A10.83,10.83,0,0,0,231,66.5a11,11,0,0,0-1.43-2.82C229.22,63.18,228.84,62.71,228.44,62.25Z" transform="translate(-1.5 -1)"/><path id="scene-left-star-1" class="scene-left-cls-1" d="M153.44,5.25a17.3,17.3,0,0,0,1.13-1.43A10.68,10.68,0,0,0,156,1a10.68,10.68,0,0,0-2.82,1.43c-.5.35-1,.73-1.43,1.12a15.31,15.31,0,0,0-1.43-1.12A10.68,10.68,0,0,0,147.5,1a10.68,10.68,0,0,0,1.43,2.82,15.78,15.78,0,0,0,1.13,1.43,15.31,15.31,0,0,0-1.12,1.43,10.83,10.83,0,0,0-1.43,2.82,11,11,0,0,0,2.82-1.43,15.78,15.78,0,0,0,1.43-1.13,17.3,17.3,0,0,0,1.43,1.13A10.83,10.83,0,0,0,156,9.5a11,11,0,0,0-1.43-2.82C154.22,6.18,153.84,5.71,153.44,5.25Z" transform="translate(-1.5 -1)"/><path id="scene-left-star-0" class="scene-left-cls-2" d="M7.44,144.25a17.3,17.3,0,0,0,1.13-1.43A10.68,10.68,0,0,0,10,140a10.68,10.68,0,0,0-2.82,1.43c-.5.35-1,.73-1.43,1.12a15.31,15.31,0,0,0-1.43-1.12A10.68,10.68,0,0,0,1.5,140a10.68,10.68,0,0,0,1.43,2.82,15.78,15.78,0,0,0,1.13,1.43,15.31,15.31,0,0,0-1.12,1.43,10.83,10.83,0,0,0-1.43,2.82,11,11,0,0,0,2.82-1.43,15.78,15.78,0,0,0,1.43-1.13,17.3,17.3,0,0,0,1.43,1.13A10.83,10.83,0,0,0,10,148.5a11,11,0,0,0-1.43-2.82C8.22,145.18,7.84,144.71,7.44,144.25Z" transform="translate(-1.5 -1)"/><g id="scene-left-boat"><rect class="scene-left-cls-1" x="71.5" y="232" width="2" height="21"/><polygon class="scene-left-cls-3" points="147.5 205.5 72.5 151.5 72.5 232.42 147.5 205.5"/><path class="scene-left-cls-4" d="M73,234.84V150.55l78.13,56.25Zm2-80.39V232l71.87-25.8Z" transform="translate(-1.5 -1)"/><polygon class="scene-left-cls-5" points="153.5 252.5 10 252.5 32.75 303 130.66 303 153.5 252.5"/><path class="scene-left-cls-6" d="M132.81,305H33.6L10,252.5h146.6Zm-97.92-2h96.62l21.93-48.5H13.05Z" transform="translate(-1.5 -1)"/></g></svg>
