<svg id="scene-right" xmlns="http://www.w3.org/2000/svg" xmlns:xlink="http://www.w3.org/1999/xlink" viewBox="0 0 699.04 317.64"><defs><style>.scene-right-cls-1{fill:url(#scene-right-linear-gradient);}.scene-right-cls-2{fill:url(#scene-right-linear-gradient-2);}.scene-right-cls-3{fill:#007ecc;}.scene-right-cls-4{fill:#c14093;}.scene-right-cls-5{fill:url(#scene-right-linear-gradient-3);}.scene-right-cls-6{fill:url(#scene-right-linear-gradient-4);}.scene-right-cls-7{fill:url(#scene-right-linear-gradient-5);}.scene-right-cls-8{fill:url(#scene-right-linear-gradient-6);}.scene-right-cls-9{fill:url(#scene-right-linear-gradient-7);}.scene-right-cls-10{fill:url(#scene-right-linear-gradient-8);}.scene-right-cls-11{fill:url(#scene-right-linear-gradient-9);}.scene-right-cls-12{fill:url(#scene-right-linear-gradient-10);}</style><linearGradient id="scene-right-linear-gradient" x1="508.772" y1="295.427" x2="567.061" y2="194.469" gradientTransform="matrix(1, 0, 0, -1, 0, 320)" gradientUnits="userSpaceOnUse"><stop offset="0.305" stop-color="#c14093" stop-opacity="0"/><stop offset="0.387" stop-color="#bc4295" stop-opacity="0.035"/><stop offset="0.488" stop-color="#ac4799" stop-opacity="0.079"/><stop offset="0.601" stop-color="#934fa1" stop-opacity="0.127"/><stop offset="0.721" stop-color="#6f5aab" stop-opacity="0.179"/><stop offset="0.847" stop-color="#4269b9" stop-opacity="0.234"/><stop offset="0.976" stop-color="#0b7ac9" stop-opacity="0.29"/><stop offset="1" stop-color="#007ecc" stop-opacity="0.3"/></linearGradient><linearGradient id="scene-right-linear-gradient-2" x1="499.212" y1="286.732" x2="581.559" y2="204.385" gradientTransform="matrix(1, 0, 0, -1, 0, 320)" gradientUnits="userSpaceOnUse"><stop offset="0" stop-color="#007ecc" stop-opacity="0.4"/><stop offset="0.878" stop-color="#007ecc" stop-opacity="0.927"/><stop offset="1" stop-color="#007ecc"/></linearGradient><linearGradient id="scene-right-linear-gradient-3" x1="406.51" y1="164.23" x2="406.51" y2="3" gradientTransform="matrix(1, 0, 0, -1, 0.09, 319.64)" gradientUnits="userSpaceOnUse"><stop offset="0" stop-color="#00c49e" stop-opacity="0"/><stop offset="0.456" stop-color="#00c29f" stop-opacity="0.091"/><stop offset="0.637" stop-color="#00bba4" stop-opacity="0.127"/><stop offset="0.769" stop-color="#00afac" stop-opacity="0.154"/><stop offset="0.877" stop-color="#009eb7" stop-opacity="0.175"/><stop offset="0.969" stop-color="#0087c6" stop-opacity="0.194"/><stop offset="1" stop-color="#007ecc" stop-opacity="0.2"/></linearGradient><linearGradient id="scene-right-linear-gradient-4" x1="406.53" y1="165.65" x2="406.53" y2="2" gradientTransform="matrix(1, 0, 0, -1, 0, 320)" gradientUnits="userSpaceOnUse"><stop offset="0" stop-color="#007ecc"/><stop offset="0.112" stop-color="#0d7ac8" stop-opacity="0.888"/><stop offset="0.319" stop-color="#2f6fbe" stop-opacity="0.681"/><stop offset="0.599" stop-color="#665dae" stop-opacity="0.401"/><stop offset="0.937" stop-color="#b24597" stop-opacity="0.063"/><stop offset="1" stop-color="#c14093" stop-opacity="0"/></linearGradient><linearGradient id="scene-right-linear-gradient-5" x1="119.72" y1="111.83" x2="119.72" y2="3.5" gradientTransform="matrix(1, 0, 0, -1, 0, 320)" gradientUnits="userSpaceOnUse"><stop offset="0" stop-color="#fff"/><stop offset="0.908" stop-color="#fff" stop-opacity="0.092"/><stop offset="1" stop-color="#fff" stop-opacity="0"/></linearGradient><linearGradient id="scene-right-linear-gradient-6" x1="120.88" y1="113.75" x2="120.88" y2="2.5" xlink:href="#scene-right-linear-gradient-4"/><linearGradient id="scene-right-linear-gradient-7" x1="450.44" y1="137.04" x2="450.44" y2="3" xlink:href="#scene-right-linear-gradient-5"/><linearGradient id="scene-right-linear-gradient-8" x1="449.295" y1="139.03" x2="449.295" xlink:href="#scene-right-linear-gradient-4"/><linearGradient id="scene-right-linear-gradient-9" x1="612.97" y1="105.95" x2="612.97" y2="15.54" gradientTransform="matrix(1, 0, 0, -1, 0.09, 319.64)" gradientUnits="userSpaceOnUse"><stop offset="0" stop-color="#c14093" stop-opacity="0"/><stop offset="0.145" stop-color="#bd4194" stop-opacity="0.058"/><stop offset="0.289" stop-color="#b14598" stop-opacity="0.116"/><stop offset="0.433" stop-color="#9d4c9e" stop-opacity="0.173"/><stop offset="0.577" stop-color="#8155a6" stop-opacity="0.231"/><stop offset="0.721" stop-color="#5d60b1" stop-opacity="0.289"/><stop offset="0.863" stop-color="#316ebd" stop-opacity="0.345"/><stop offset="1" stop-color="#007ecc" stop-opacity="0.4"/></linearGradient><linearGradient id="scene-right-linear-gradient-10" x1="306.37" y1="150.55" x2="306.37" y2="60.14" xlink:href="#scene-right-linear-gradient-9"/></defs><title>scene-right</title><g id="scene-right-moon"><path class="scene-right-cls-1" d="M547.87,2a53.049,53.049,0,1,1-81.29,68.08A67.02,67.02,0,1,0,547.87,2Z" transform="translate(0.09 -0.36)"/><path class="scene-right-cls-2" d="M533.54,135.5a67.778,67.778,0,0,1-67.96-65.39l-.12-3.09,1.91,2.44A52.048,52.048,0,1,0,547.13,2.67L545.06.36l3.03.66A68.027,68.027,0,0,1,533.54,135.5ZM467.76,73.08A66.019,66.019,0,1,0,550.62,3.7a54.049,54.049,0,0,1-82.86,69.38Z" transform="translate(0.09 -0.36)"/></g><path id="scene-right-star-3" class="scene-right-cls-3" d="M671.73,190.5c1.11-1.15,2.19-2.32,3.22-3.56a38.661,38.661,0,0,0,3.56-4.95,38.761,38.761,0,0,0-4.94,3.55c-1.23,1.03-2.41,2.11-3.56,3.21-1.15-1.11-2.32-2.19-3.56-3.21a38.217,38.217,0,0,0-4.94-3.55,38.661,38.661,0,0,0,3.56,4.95c1.03,1.23,2.11,2.41,3.22,3.56-1.11,1.15-2.19,2.33-3.21,3.56a39.266,39.266,0,0,0-3.56,4.94,39.266,39.266,0,0,0,4.94-3.56c1.23-1.03,2.41-2.11,3.56-3.21,1.15,1.11,2.33,2.19,3.56,3.21a39.266,39.266,0,0,0,4.94,3.56,39.266,39.266,0,0,0-3.56-4.94C673.92,192.83,672.84,191.65,671.73,190.5Z" transform="translate(0.09 -0.36)"/><path id="scene-right-star-2" class="scene-right-cls-4" d="M403.96,36.75c.65-.7,1.28-1.42,1.86-2.18A18.5,18.5,0,0,0,408,31a18.5,18.5,0,0,0-3.57,2.18c-.76.58-1.48,1.21-2.18,1.86-.7-.65-1.42-1.27-2.18-1.86A18.5,18.5,0,0,0,396.5,31a18.5,18.5,0,0,0,2.18,3.57c.58.76,1.21,1.48,1.86,2.18-.65.7-1.27,1.42-1.86,2.18a18.5,18.5,0,0,0-2.18,3.57,19.013,19.013,0,0,0,3.57-2.18c.76-.58,1.48-1.21,2.18-1.86.7.65,1.42,1.27,2.18,1.86A18.5,18.5,0,0,0,408,42.5a19.013,19.013,0,0,0-2.18-3.57C405.24,38.17,404.61,37.45,403.96,36.75Z" transform="translate(0.09 -0.36)"/><path id="scene-right-star-1" class="scene-right-cls-3" d="M315.44,83.25a17.3,17.3,0,0,0,1.13-1.43A10.675,10.675,0,0,0,318,79a10.675,10.675,0,0,0-2.82,1.43c-.5.35-.97.73-1.43,1.12a15.309,15.309,0,0,0-1.43-1.12A10.675,10.675,0,0,0,309.5,79a10.675,10.675,0,0,0,1.43,2.82,15.779,15.779,0,0,0,1.13,1.43,15.309,15.309,0,0,0-1.12,1.43,10.831,10.831,0,0,0-1.43,2.82,10.991,10.991,0,0,0,2.82-1.43,15.779,15.779,0,0,0,1.43-1.13,17.3,17.3,0,0,0,1.43,1.13,10.831,10.831,0,0,0,2.82,1.43,10.991,10.991,0,0,0-1.43-2.82C316.22,84.18,315.84,83.71,315.44,83.25Z" transform="translate(0.09 -0.36)"/><path id="scene-right-star-0" class="scene-right-cls-4" d="M223.99,48.5a17.3,17.3,0,0,0,1.13-1.43,10.675,10.675,0,0,0,1.43-2.82,10.675,10.675,0,0,0-2.82,1.43c-.5.35-.97.73-1.43,1.12a15.309,15.309,0,0,0-1.43-1.12,10.675,10.675,0,0,0-2.82-1.43,10.675,10.675,0,0,0,1.43,2.82,15.779,15.779,0,0,0,1.13,1.43,15.309,15.309,0,0,0-1.12,1.43,10.831,10.831,0,0,0-1.43,2.82,10.991,10.991,0,0,0,2.82-1.43,15.779,15.779,0,0,0,1.43-1.13,17.3,17.3,0,0,0,1.43,1.13,10.831,10.831,0,0,0,2.82,1.43,10.991,10.991,0,0,0-1.43-2.82C224.77,49.43,224.39,48.96,223.99,48.5Z" transform="translate(0.09 -0.36)"/><g id="scene-right-mountains"><polyline class="scene-right-cls-5" points="438.41 316.64 277.85 155.41 116.61 316.64 696.59 316.64 566.62 189.1 437.92 316.64"/><path class="scene-right-cls-6" d="M698.95,318H114.11L277.76,154.35,438.09,315.34,566.53,188.05l.7.69Zm-258.69-2H694.05L566.53,190.86Zm-321.32,0H435.92L277.75,157.18Z" transform="translate(0.09 -0.36)"/><path class="scene-right-cls-7" d="M239.44,316.5,131.1,208.17A150.024,150.024,0,0,1,0,316.5Z" transform="translate(0.09 -0.36)"/><path class="scene-right-cls-8" d="M241.85,317.5H0l-.09-2c61.14-5.31,113.47-48.56,130.23-107.61l.46-1.64Zm-227.1-2H237.02L131.59,210.07a150.324,150.324,0,0,1-48.13,73.04A149.768,149.768,0,0,1,14.75,315.5Z" transform="translate(0.09 -0.36)"/><path class="scene-right-cls-9" d="M309.07,317,443.11,182.96A172.954,172.954,0,0,0,591.81,317Z" transform="translate(0.09 -0.36)"/><path class="scene-right-cls-10" d="M591.81,318H306.66L443.69,180.97l.4,1.78A171.681,171.681,0,0,0,591.93,316.01Zm-280.32-2H578.73A173.732,173.732,0,0,1,442.54,184.95Z" transform="translate(0.09 -0.36)"/><polygon class="scene-right-cls-11" points="656.85 304.1 567.85 215.1 569.27 213.69 658.27 302.69 656.85 304.1"/><polygon class="scene-right-cls-12" points="350.25 259.5 261.25 170.5 262.67 169.09 351.67 258.09 350.25 259.5"/></g></svg>
