<svg id="scene-main" xmlns="http://www.w3.org/2000/svg" xmlns:xlink="http://www.w3.org/1999/xlink" viewBox="0 0 1920.57 732.97"><defs><style>.scene-main-cls-1{fill:#007ecc;}.scene-main-cls-2{fill:#c14093;}.scene-main-cls-3{fill:none;stroke:#007ecc;stroke-miterlimit:10;}.scene-main-cls-4{fill:#fff;}.scene-main-cls-5{fill:url(#scene-main-linear-gradient);}.scene-main-cls-6{fill:url(#scene-main-linear-gradient-2);}.scene-main-cls-7{fill:url(#scene-main-linear-gradient-3);}</style><linearGradient id="scene-main-linear-gradient" x1="1920.52" y1="239.53" x2="0" y2="239.53" gradientTransform="matrix(1, 0, 0, -1, 0, 740)" gradientUnits="userSpaceOnUse"><stop offset="0" stop-color="#007ecc" stop-opacity="0"/><stop offset="0.29" stop-color="#007ecc" stop-opacity="0.15"/><stop offset="0.33" stop-color="#0085c7" stop-opacity="0.15"/><stop offset="0.38" stop-color="#009aba" stop-opacity="0.15"/><stop offset="0.46" stop-color="#00bca4" stop-opacity="0.15"/><stop offset="0.47" stop-color="#00c49e" stop-opacity="0.15"/><stop offset="0.53" stop-color="#00c49e" stop-opacity="0.13"/><stop offset="1" stop-color="#00c49e" stop-opacity="0"/></linearGradient><linearGradient id="scene-main-linear-gradient-2" y1="472" x2="1920" y2="472" gradientTransform="matrix(1, 0, 0, -1, 0, 740)" gradientUnits="userSpaceOnUse"><stop offset="0" stop-color="#007ecc" stop-opacity="0.1"/><stop offset="0.54" stop-color="#007ecc"/><stop offset="1" stop-color="#007ecc" stop-opacity="0.1"/></linearGradient><linearGradient id="scene-main-linear-gradient-3" x1="-0.05" y1="436.5" x2="1920" y2="436.5" gradientTransform="matrix(1, 0, 0, -1, 0, 740)" gradientUnits="userSpaceOnUse"><stop offset="0" stop-color="#00c49e" stop-opacity="0"/><stop offset="0.46" stop-color="#00c49e" stop-opacity="0.2"/><stop offset="0.56" stop-color="#00a1b5" stop-opacity="0.2"/><stop offset="0.65" stop-color="#008ac4" stop-opacity="0.2"/><stop offset="0.7" stop-color="#0082c9" stop-opacity="0.2"/><stop offset="1" stop-color="#0082c9" stop-opacity="0"/></linearGradient></defs><title>scene-main</title><path id="scene-main-star-4" class="scene-main-cls-1" d="M1785,122.5a17.3,17.3,0,0,0,1.13-1.43,10.68,10.68,0,0,0,1.43-2.82,10.68,10.68,0,0,0-2.82,1.43c-.5.35-1,.73-1.43,1.12a15.31,15.31,0,0,0-1.43-1.12,10.68,10.68,0,0,0-2.82-1.43,10.68,10.68,0,0,0,1.43,2.82,15.78,15.78,0,0,0,1.13,1.43,15.31,15.31,0,0,0-1.12,1.43,10.83,10.83,0,0,0-1.43,2.82,11,11,0,0,0,2.82-1.43,15.78,15.78,0,0,0,1.43-1.13,17.3,17.3,0,0,0,1.43,1.13,10.83,10.83,0,0,0,2.82,1.43,11,11,0,0,0-1.43-2.82C1785.77,123.43,1785.39,123,1785,122.5Z" transform="translate(0.05 -7)"/><path id="scene-main-star-3" class="scene-main-cls-2" d="M1632,35.5a17.3,17.3,0,0,0,1.13-1.43,10.68,10.68,0,0,0,1.43-2.82,10.68,10.68,0,0,0-2.82,1.43c-.5.35-1,.73-1.43,1.12h0a15.31,15.31,0,0,0-1.43-1.12,10.68,10.68,0,0,0-2.82-1.43,10.68,10.68,0,0,0,1.43,2.82,15.78,15.78,0,0,0,1.13,1.43h0a15.31,15.31,0,0,0-1.12,1.43,10.83,10.83,0,0,0-1.43,2.82,11,11,0,0,0,2.82-1.43,14.37,14.37,0,0,0,1.42-1.13,17.3,17.3,0,0,0,1.43,1.13,10.83,10.83,0,0,0,2.82,1.43,11,11,0,0,0-1.43-2.82A17.3,17.3,0,0,0,1632,35.5Z" transform="translate(0.05 -7)"/><path id="scene-main-star-2" class="scene-main-cls-1" d="M297.44,11.25a17.3,17.3,0,0,0,1.13-1.43A10.68,10.68,0,0,0,300,7a10.68,10.68,0,0,0-2.82,1.43c-.5.35-1,.73-1.43,1.12a15.31,15.31,0,0,0-1.43-1.12A10.68,10.68,0,0,0,291.5,7a10.68,10.68,0,0,0,1.43,2.82,15.78,15.78,0,0,0,1.13,1.43,15.31,15.31,0,0,0-1.12,1.43,10.83,10.83,0,0,0-1.43,2.82,11,11,0,0,0,2.82-1.43,15.78,15.78,0,0,0,1.43-1.13,17.3,17.3,0,0,0,1.43,1.13A10.83,10.83,0,0,0,300,15.5a11,11,0,0,0-1.43-2.82C298.22,12.18,297.84,11.71,297.44,11.25Z" transform="translate(0.05 -7)"/><path id="scene-main-star-1" class="scene-main-cls-1" d="M193,219.5a17.3,17.3,0,0,0,1.13-1.43,10.68,10.68,0,0,0,1.43-2.82,10.68,10.68,0,0,0-2.82,1.43c-.5.35-1,.73-1.43,1.12a15.31,15.31,0,0,0-1.43-1.12,10.68,10.68,0,0,0-2.82-1.43,10.68,10.68,0,0,0,1.43,2.82,15.78,15.78,0,0,0,1.13,1.43,15.31,15.31,0,0,0-1.12,1.43,10.83,10.83,0,0,0-1.43,2.82,11,11,0,0,0,2.82-1.43,15.78,15.78,0,0,0,1.43-1.13,17.3,17.3,0,0,0,1.43,1.13,10.83,10.83,0,0,0,2.82,1.43,11,11,0,0,0-1.43-2.82C193.77,220.43,193.39,220,193,219.5Z" transform="translate(0.05 -7)"/><path id="scene-main-star-0" class="scene-main-cls-2" d="M56,93.5a17.3,17.3,0,0,0,1.13-1.43,10.68,10.68,0,0,0,1.43-2.82,10.68,10.68,0,0,0-2.82,1.43c-.5.35-1,.73-1.43,1.12a15.31,15.31,0,0,0-1.43-1.12,10.68,10.68,0,0,0-2.82-1.43,10.68,10.68,0,0,0,1.43,2.82,15.78,15.78,0,0,0,1.13,1.43,15.31,15.31,0,0,0-1.12,1.43,10.83,10.83,0,0,0-1.43,2.82,11,11,0,0,0,2.82-1.43,15.78,15.78,0,0,0,1.43-1.13,17.3,17.3,0,0,0,1.43,1.13,10.83,10.83,0,0,0,2.82,1.43,11,11,0,0,0-1.43-2.82C56.77,94.43,56.39,94,56,93.5Z" transform="translate(0.05 -7)"/><g id="scene-main-water-body"><path class="scene-main-cls-3" d="M1920,303.5" transform="translate(0.05 -7)"/><path class="scene-main-cls-4" d="M1920,260.5c-32,0-32,14-64,14s-32-14-64-14-32,14-64,14-32-14-64-14-32,14-64,14-32-14-64-14-32,14-64,14-32-14-64-14-32,14-64,14-32-14-64-14-32,14-64,14-32-14-64-14-32,14-64,14-32-14-64-14-32,14-64,14-32-14-64-14-32,14-64,14-32-14-64-14-32,14-64,14-32-14-64-14-32,14-64,14-32-14-64-14-32,14-64,14-32-14-64-14-32,14-64,14-32-14-64-14-32,14-64,14-32-14-64-14-32,14-64,14-32-14-64-14V739h1920.5Z" transform="translate(0.05 -7)"/><path class="scene-main-cls-5" d="M1920,261c-32,0-32,14-64,14s-32-14-64-14-32,14-64,14-32-14-64-14-32,14-64,14-32-14-64-14-32,14-64,14-32-14-64-14-32,14-64,14-32-14-64-14-32,14-64,14-32-14-64-14-32,14-64,14-32-14-64-14-32,14-64,14-32-14-64-14-32,14-64,14-32-14-64-14-32,14-64,14-32-14-64-14-32,14-64,14-32-14-64-14-32,14-64,14-32-14-64-14-32,14-64,14-32-14-64-14-32,14-64,14-32-14-64-14-32,14-64,14S32,261,0,261V740H1920.52Z" transform="translate(0.05 -7)"/><path class="scene-main-cls-6" d="M1856,276c-16.21,0-24.44-3.6-32.4-7.08-8.13-3.56-15.81-6.92-31.6-6.92s-23.47,3.36-31.6,6.92c-8,3.48-16.19,7.08-32.4,7.08s-24.44-3.6-32.4-7.08c-8.13-3.56-15.81-6.92-31.6-6.92s-23.47,3.36-31.6,6.92c-8,3.48-16.19,7.08-32.4,7.08s-24.44-3.6-32.4-7.08c-8.13-3.56-15.81-6.92-31.6-6.92s-23.47,3.36-31.6,6.92c-8,3.48-16.19,7.08-32.4,7.08s-24.44-3.6-32.4-7.08c-8.13-3.56-15.81-6.92-31.6-6.92s-23.47,3.36-31.6,6.92c-8,3.48-16.19,7.08-32.4,7.08s-24.44-3.6-32.4-7.08c-8.13-3.56-15.81-6.92-31.6-6.92s-23.47,3.36-31.6,6.92c-8,3.48-16.19,7.08-32.4,7.08s-24.44-3.6-32.4-7.08c-8.13-3.56-15.81-6.92-31.6-6.92s-23.47,3.36-31.6,6.92c-8,3.48-16.19,7.08-32.4,7.08s-24.44-3.6-32.4-7.08c-8.13-3.56-15.81-6.92-31.6-6.92s-23.47,3.36-31.6,6.92c-8,3.48-16.19,7.08-32.4,7.08s-24.44-3.6-32.4-7.08c-8.13-3.56-15.81-6.92-31.6-6.92s-23.47,3.36-31.6,6.92c-8,3.48-16.19,7.08-32.4,7.08s-24.44-3.6-32.4-7.08c-8.13-3.56-15.81-6.92-31.6-6.92s-23.47,3.36-31.6,6.92c-8,3.48-16.19,7.08-32.4,7.08s-24.44-3.6-32.4-7.08c-8.13-3.56-15.81-6.92-31.6-6.92s-23.47,3.36-31.6,6.92c-8,3.48-16.19,7.08-32.4,7.08s-24.44-3.6-32.4-7.08c-8.13-3.56-15.81-6.92-31.6-6.92s-23.47,3.36-31.6,6.92c-8,3.48-16.19,7.08-32.4,7.08s-24.44-3.6-32.4-7.08c-8.13-3.56-15.81-6.92-31.6-6.92s-23.47,3.36-31.6,6.92c-8,3.48-16.19,7.08-32.4,7.08s-24.44-3.6-32.4-7.08c-8.13-3.56-15.81-6.92-31.6-6.92s-23.47,3.36-31.6,6.92c-8,3.48-16.19,7.08-32.4,7.08s-24.44-3.6-32.4-7.08c-8.13-3.56-15.81-6.92-31.6-6.92s-23.47,3.36-31.6,6.92C88.44,272.4,80.21,276,64,276s-24.44-3.6-32.4-7.08C23.47,265.36,15.79,262,0,262v-2c16.21,0,24.44,3.6,32.4,7.08C40.53,270.64,48.21,274,64,274s23.47-3.36,31.6-6.92c8-3.48,16.19-7.08,32.4-7.08s24.44,3.6,32.4,7.08c8.13,3.56,15.81,6.92,31.6,6.92s23.47-3.36,31.6-6.92c8-3.48,16.19-7.08,32.4-7.08s24.44,3.6,32.4,7.08c8.13,3.56,15.81,6.92,31.6,6.92s23.47-3.36,31.6-6.92c8-3.48,16.19-7.08,32.4-7.08s24.44,3.6,32.4,7.08c8.13,3.56,15.81,6.92,31.6,6.92s23.47-3.36,31.6-6.92c8-3.48,16.19-7.08,32.4-7.08s24.44,3.6,32.4,7.08c8.13,3.56,15.81,6.92,31.6,6.92s23.47-3.36,31.6-6.92c8-3.48,16.19-7.08,32.4-7.08s24.44,3.6,32.4,7.08c8.13,3.56,15.81,6.92,31.6,6.92s23.47-3.36,31.6-6.92c8-3.48,16.19-7.08,32.4-7.08s24.44,3.6,32.4,7.08c8.13,3.56,15.81,6.92,31.6,6.92s23.47-3.36,31.6-6.92c8-3.48,16.19-7.08,32.4-7.08s24.44,3.6,32.4,7.08c8.13,3.56,15.81,6.92,31.6,6.92s23.47-3.36,31.6-6.92c8-3.48,16.19-7.08,32.4-7.08s24.44,3.6,32.4,7.08c8.13,3.56,15.81,6.92,31.6,6.92s23.47-3.36,31.6-6.92c8-3.48,16.19-7.08,32.4-7.08s24.44,3.6,32.4,7.08c8.13,3.56,15.81,6.92,31.6,6.92s23.47-3.36,31.6-6.92c8-3.48,16.19-7.08,32.4-7.08s24.44,3.6,32.4,7.08c8.13,3.56,15.81,6.92,31.6,6.92s23.47-3.36,31.6-6.92c8-3.48,16.19-7.08,32.4-7.08s24.44,3.6,32.4,7.08c8.13,3.56,15.81,6.92,31.6,6.92s23.47-3.36,31.6-6.92c8-3.48,16.19-7.08,32.4-7.08s24.44,3.6,32.4,7.08c8.13,3.56,15.81,6.92,31.6,6.92s23.47-3.36,31.6-6.92c8-3.48,16.19-7.08,32.4-7.08s24.44,3.6,32.4,7.08c8.13,3.56,15.81,6.92,31.6,6.92s23.47-3.36,31.6-6.92c8-3.48,16.19-7.08,32.4-7.08s24.44,3.6,32.4,7.08c8.13,3.56,15.81,6.92,31.6,6.92s23.47-3.36,31.6-6.92c8-3.48,16.19-7.08,32.4-7.08v2c-15.79,0-23.47,3.36-31.6,6.92C1880.44,272.4,1872.2,276,1856,276Z" transform="translate(0.05 -7)"/></g><path id="scene-main-water-wave" class="scene-main-cls-7" d="M1920,310.5c-12,0-18-3.11-23.88-6.11s-11.5-5.89-23-5.89-17.05,2.86-23,5.89-11.92,6.11-23.88,6.11-18-3.11-23.87-6.11-11.49-5.89-23-5.89-17,2.86-23,5.89-11.92,6.11-23.87,6.11-18-3.11-23.87-6.11-11.49-5.89-23-5.89-17,2.86-23,5.89S1651,310.5,1639,310.5s-18-3.11-23.87-6.11-11.49-5.89-23-5.89-17.05,2.86-23,5.89-11.92,6.11-23.87,6.11-18-3.11-23.87-6.11-11.49-5.89-23-5.89-17,2.86-23,5.89-11.92,6.11-23.87,6.11-18-3.11-23.87-6.11-11.49-5.89-23-5.89-17,2.86-23,5.89S1370,310.5,1358,310.5s-18-3.11-23.87-6.11-11.49-5.89-23-5.89-17,2.86-23,5.89-11.92,6.11-23.87,6.11-18-3.11-23.87-6.11-11.49-5.89-23-5.89-17,2.86-23,5.89-11.92,6.11-23.87,6.11-18-3.11-23.87-6.11-11.49-5.89-23-5.89-17,2.86-23,5.89S1089,310.5,1077,310.5s-18-3.11-23.87-6.11-11.49-5.89-23-5.89-17.05,2.86-23,5.89-11.92,6.11-23.87,6.11-18-3.11-23.87-6.11-11.49-5.89-23-5.89-17,2.86-23,5.89-11.92,6.11-23.87,6.11-18-3.11-23.87-6.11-11.49-5.89-23-5.89-17,2.86-23,5.89S808,310.5,796.06,310.5s-18-3.11-23.87-6.11-11.49-5.89-23-5.89-17.05,2.86-23,5.89-11.92,6.11-23.87,6.11-18-3.11-23.87-6.11-11.49-5.89-23-5.89-17.05,2.86-23,5.89-11.92,6.11-23.87,6.11-18-3.11-23.87-6.11-11.49-5.89-23-5.89-17,2.86-23,5.89S527,310.5,515.08,310.5s-18-3.11-23.87-6.11-11.49-5.89-23-5.89-17.05,2.86-23,5.89-11.92,6.11-23.87,6.11-18-3.11-23.87-6.11-11.49-5.89-23-5.89-17,2.86-23,5.89-11.92,6.11-23.87,6.11-18-3.11-23.87-6.11-11.49-5.89-23-5.89-17.05,2.86-23,5.89-11.92,6.11-23.87,6.11-18-3.11-23.87-6.11-11.49-5.89-23-5.89-17.05,2.86-23,5.89-11.92,6.11-23.87,6.11-18-3.11-23.87-6.11-11.49-5.89-23-5.89-17,2.86-23,5.89-11.92,6.11-23.87,6.11-18-3.11-23.87-6.11S11.42,298.5,0,298.5v-2c12,0,18,3.11,23.87,6.11s11.49,5.89,23,5.89,17-2.86,23-5.89,11.92-6.11,23.87-6.11,18,3.11,23.87,6.11,11.49,5.89,23,5.89,17.05-2.86,23-5.89,11.92-6.11,23.87-6.11,18,3.11,23.87,6.11,11.49,5.89,23,5.89,17.05-2.86,23-5.89,11.92-6.11,23.87-6.11,18,3.11,23.87,6.11,11.49,5.89,23,5.89,17.05-2.86,23-5.89,11.92-6.11,23.87-6.11,18,3.11,23.87,6.11,11.49,5.89,23,5.89,17.05-2.86,23-5.89,11.92-6.11,23.87-6.11,18,3.11,23.87,6.11,11.49,5.89,23,5.89,17-2.86,23-5.89,11.92-6.11,23.87-6.11,18,3.11,23.87,6.11,11.49,5.89,23,5.89,17-2.86,23-5.89,11.92-6.11,23.87-6.11,18,3.11,23.87,6.11,11.49,5.89,23,5.89,17.05-2.86,23-5.89,11.92-6.11,23.87-6.11,18,3.11,23.87,6.11,11.49,5.89,23,5.89,17.05-2.86,23-5.89,11.92-6.11,23.87-6.11,18,3.11,23.87,6.11,11.49,5.89,23,5.89,17-2.86,23-5.89,11.92-6.11,23.87-6.11,18,3.11,23.87,6.11,11.49,5.89,23,5.89,17-2.86,23-5.89,11.92-6.11,23.87-6.11,18,3.11,23.87,6.11,11.49,5.89,23,5.89,17-2.86,23-5.89,11.92-6.11,23.87-6.11,18,3.11,23.87,6.11,11.49,5.89,23,5.89,17-2.86,23-5.89,11.92-6.11,23.87-6.11,18,3.11,23.87,6.11,11.49,5.89,23,5.89,17.05-2.86,23-5.89,11.92-6.11,23.87-6.11,18,3.11,23.87,6.11,11.49,5.89,23,5.89,17-2.86,23-5.89,11.92-6.11,23.87-6.11,18,3.11,23.87,6.11,11.49,5.89,23,5.89,17-2.86,23-5.89,11.92-6.11,23.87-6.11,18,3.11,23.87,6.11,11.49,5.89,23,5.89,17.05-2.86,23-5.89,11.92-6.11,23.87-6.11,18,3.11,23.87,6.11,11.49,5.89,23,5.89,17-2.86,23-5.89,11.92-6.11,23.87-6.11,18,3.11,23.87,6.11,11.49,5.89,23,5.89,17-2.86,23-5.89,11.92-6.11,23.87-6.11,18,3.11,23.87,6.11,11.49,5.89,23,5.89,17-2.86,23-5.89,11.92-6.11,23.88-6.11,18,3.11,23.88,6.11,11.5,5.89,23,5.89Z" transform="translate(0.05 -7)"/></svg>
