<svg id="scene-main" xmlns="http://www.w3.org/2000/svg" xmlns:xlink="http://www.w3.org/1999/xlink" viewBox="0 0 1923.401 732.9"><defs><style>.scene-main-cls-1{fill:#007ecc;}.scene-main-cls-2{fill:#c14093;}.scene-main-cls-3{fill:none;stroke:#007ecc;stroke-miterlimit:10;}.scene-main-cls-4{fill:#fff;}.scene-main-cls-5{fill:url(#scene-main-linear-gradient);}.scene-main-cls-6{fill:url(#scene-main-linear-gradient-2);}.scene-main-cls-7{fill:url(#scene-main-linear-gradient-3);}</style><linearGradient id="scene-main-linear-gradient" x1="1920.5" y1="840.5" x2="0" y2="840.5" gradientTransform="translate(0 -340)" gradientUnits="userSpaceOnUse"><stop offset="0" stop-color="#007ecc" stop-opacity="0"/><stop offset="0.286" stop-color="#007ecc" stop-opacity="0.15"/><stop offset="0.325" stop-color="#0085c7" stop-opacity="0.15"/><stop offset="0.385" stop-color="#009aba" stop-opacity="0.15"/><stop offset="0.456" stop-color="#00bca4" stop-opacity="0.15"/><stop offset="0.472" stop-color="#00c49e" stop-opacity="0.15"/><stop offset="0.532" stop-color="#00c49e" stop-opacity="0.133"/><stop offset="1" stop-color="#00c49e" stop-opacity="0"/></linearGradient><linearGradient id="scene-main-linear-gradient-2" y1="608" x2="1920" y2="608" gradientTransform="translate(0 -340)" gradientUnits="userSpaceOnUse"><stop offset="0" stop-color="#007ecc" stop-opacity="0.1"/><stop offset="0.542" stop-color="#007ecc"/><stop offset="1" stop-color="#007ecc" stop-opacity="0.1"/></linearGradient><linearGradient id="scene-main-linear-gradient-3" x1="-0.049" y1="643.5" x2="1920" y2="643.5" gradientTransform="translate(0 -340)" gradientUnits="userSpaceOnUse"><stop offset="0" stop-color="#00c49e" stop-opacity="0"/><stop offset="0.461" stop-color="#00c49e" stop-opacity="0.2"/><stop offset="0.561" stop-color="#00a1b5" stop-opacity="0.2"/><stop offset="0.646" stop-color="#008ac4" stop-opacity="0.2"/><stop offset="0.699" stop-color="#0082c9" stop-opacity="0.2"/><stop offset="1" stop-color="#0082c9" stop-opacity="0"/></linearGradient></defs><title>scene-main</title><path id="scene-main-star-5" class="scene-main-cls-1" d="M1878.291,53.974a13.444,13.444,0,0,0,1.1-1.4,8.183,8.183,0,0,0,1.4-2.8,10.475,10.475,0,0,0-2.8,1.4,17.1,17.1,0,0,0-1.4,1.1,13.444,13.444,0,0,0-1.4-1.1,8.183,8.183,0,0,0-2.8-1.4,10.475,10.475,0,0,0,1.4,2.8,17.1,17.1,0,0,0,1.1,1.4,13.444,13.444,0,0,0-1.1,1.4,9.2,9.2,0,0,0-1.4,2.8,10.475,10.475,0,0,0,2.8-1.4,17.1,17.1,0,0,0,1.4-1.1,13.444,13.444,0,0,0,1.4,1.1,9.2,9.2,0,0,0,2.8,1.4,10.475,10.475,0,0,0-1.4-2.8A13.444,13.444,0,0,0,1878.291,53.974Z" transform="translate(2.901 -7.1)"/><path id="scene-main-star-4" class="scene-main-cls-1" d="M1785,144.5a13.444,13.444,0,0,0,1.1-1.4,8.183,8.183,0,0,0,1.4-2.8,10.475,10.475,0,0,0-2.8,1.4,7.551,7.551,0,0,0-1.4,1.1,13.444,13.444,0,0,0-1.4-1.1,8.183,8.183,0,0,0-2.8-1.4,10.475,10.475,0,0,0,1.4,2.8,7.551,7.551,0,0,0,1.1,1.4,13.444,13.444,0,0,0-1.1,1.4,8.183,8.183,0,0,0-1.4,2.8,10.475,10.475,0,0,0,2.8-1.4,7.551,7.551,0,0,0,1.4-1.1,13.444,13.444,0,0,0,1.4,1.1,8.183,8.183,0,0,0,2.8,1.4,10.475,10.475,0,0,0-1.4-2.8A13.444,13.444,0,0,0,1785,144.5Z" transform="translate(2.901 -7.1)"/><path id="scene-main-star-3" class="scene-main-cls-2" d="M1632,35.5a13.444,13.444,0,0,0,1.1-1.4,8.183,8.183,0,0,0,1.4-2.8,10.475,10.475,0,0,0-2.8,1.4,7.551,7.551,0,0,0-1.4,1.1h0a13.444,13.444,0,0,0-1.4-1.1,8.183,8.183,0,0,0-2.8-1.4,10.475,10.475,0,0,0,1.4,2.8,7.551,7.551,0,0,0,1.1,1.4h0a13.444,13.444,0,0,0-1.1,1.4,8.183,8.183,0,0,0-1.4,2.8,10.475,10.475,0,0,0,2.8-1.4,7.551,7.551,0,0,0,1.4-1.1,13.444,13.444,0,0,0,1.4,1.1,8.183,8.183,0,0,0,2.8,1.4,10.475,10.475,0,0,0-1.4-2.8A13.444,13.444,0,0,0,1632,35.5Z" transform="translate(2.901 -7.1)"/><path id="scene-main-star-2" class="scene-main-cls-1" d="M297.4,11.3a13.444,13.444,0,0,0,1.1-1.4,8.183,8.183,0,0,0,1.4-2.8,10.475,10.475,0,0,0-2.8,1.4,17.1,17.1,0,0,0-1.4,1.1,13.444,13.444,0,0,0-1.4-1.1,8.183,8.183,0,0,0-2.8-1.4,10.475,10.475,0,0,0,1.4,2.8,17.1,17.1,0,0,0,1.1,1.4,13.444,13.444,0,0,0-1.1,1.4,9.2,9.2,0,0,0-1.4,2.8,10.475,10.475,0,0,0,2.8-1.4,17.1,17.1,0,0,0,1.4-1.1,13.444,13.444,0,0,0,1.4,1.1,9.2,9.2,0,0,0,2.8,1.4,10.475,10.475,0,0,0-1.4-2.8A7.551,7.551,0,0,0,297.4,11.3Z" transform="translate(2.901 -7.1)"/><path id="scene-main-star-1" class="scene-main-cls-1" d="M193,219.5a13.444,13.444,0,0,0,1.1-1.4,8.183,8.183,0,0,0,1.4-2.8,10.475,10.475,0,0,0-2.8,1.4,17.1,17.1,0,0,0-1.4,1.1,13.444,13.444,0,0,0-1.4-1.1,8.183,8.183,0,0,0-2.8-1.4,10.475,10.475,0,0,0,1.4,2.8,17.1,17.1,0,0,0,1.1,1.4,13.444,13.444,0,0,0-1.1,1.4,9.2,9.2,0,0,0-1.4,2.8,10.475,10.475,0,0,0,2.8-1.4,17.1,17.1,0,0,0,1.4-1.1,13.444,13.444,0,0,0,1.4,1.1,9.2,9.2,0,0,0,2.8,1.4,10.475,10.475,0,0,0-1.4-2.8A13.444,13.444,0,0,0,193,219.5Z" transform="translate(2.901 -7.1)"/><path id="scene-main-star-0" class="scene-main-cls-2" d="M56,93.5a13.444,13.444,0,0,0,1.1-1.4,8.183,8.183,0,0,0,1.4-2.8,10.475,10.475,0,0,0-2.8,1.4,7.551,7.551,0,0,0-1.4,1.1,13.444,13.444,0,0,0-1.4-1.1,8.183,8.183,0,0,0-2.8-1.4,10.475,10.475,0,0,0,1.4,2.8,7.551,7.551,0,0,0,1.1,1.4,13.444,13.444,0,0,0-1.1,1.4,8.183,8.183,0,0,0-1.4,2.8,10.475,10.475,0,0,0,2.8-1.4,7.551,7.551,0,0,0,1.4-1.1,13.444,13.444,0,0,0,1.4,1.1,8.183,8.183,0,0,0,2.8,1.4,10.475,10.475,0,0,0-1.4-2.8A13.444,13.444,0,0,0,56,93.5Z" transform="translate(2.901 -7.1)"/><g id="scene-main-water-body"><path class="scene-main-cls-3" d="M1920,303.5" transform="translate(2.901 -7.1)"/><path class="scene-main-cls-4" d="M1920,260.5c-32,0-32,14-64,14s-32-14-64-14-32,14-64,14-32-14-64-14-32,14-64,14-32-14-64-14-32,14-64,14-32-14-64-14-32,14-64,14-32-14-64-14-32,14-64,14-32-14-64-14-32,14-64,14-32-14-64-14-32,14-64,14-32-14-64-14-32,14-64,14-32-14-64-14-32,14-64,14-32-14-64-14-32,14-64,14-32-14-64-14-32,14-64,14-32-14-64-14-32,14-64,14-32-14-64-14-32,14-64,14-32-14-64-14-32,14-64,14-32-14-64-14V739H1920.5Z" transform="translate(2.901 -7.1)"/><path class="scene-main-cls-5" d="M1920,261c-32,0-32,14-64,14s-32-14-64-14-32,14-64,14-32-14-64-14-32,14-64,14-32-14-64-14-32,14-64,14-32-14-64-14-32,14-64,14-32-14-64-14-32,14-64,14-32-14-64-14-32,14-64,14-32-14-64-14-32,14-64,14-32-14-64-14-32,14-64,14-32-14-64-14-32,14-64,14-32-14-64-14-32,14-64,14-32-14-64-14-32,14-64,14-32-14-64-14-32,14-64,14-32-14-64-14-32,14-64,14-32-14-64-14-32,14-64,14S32,261,0,261V740H1920.5Z" transform="translate(2.901 -7.1)"/><path class="scene-main-cls-6" d="M1856,276c-16.2,0-24.4-3.6-32.4-7.1-8.1-3.6-15.8-6.9-31.6-6.9s-23.5,3.4-31.6,6.9c-8,3.5-16.2,7.1-32.4,7.1s-24.4-3.6-32.4-7.1c-8.1-3.6-15.8-6.9-31.6-6.9s-23.5,3.4-31.6,6.9c-8,3.5-16.2,7.1-32.4,7.1s-24.4-3.6-32.4-7.1c-8.1-3.6-15.8-6.9-31.6-6.9s-23.5,3.4-31.6,6.9c-8,3.5-16.2,7.1-32.4,7.1s-24.4-3.6-32.4-7.1c-8.1-3.6-15.8-6.9-31.6-6.9s-23.5,3.4-31.6,6.9c-8,3.5-16.2,7.1-32.4,7.1s-24.4-3.6-32.4-7.1c-8.1-3.6-15.8-6.9-31.6-6.9s-23.5,3.4-31.6,6.9c-8,3.5-16.2,7.1-32.4,7.1s-24.4-3.6-32.4-7.1c-8.1-3.6-15.8-6.9-31.6-6.9s-23.5,3.4-31.6,6.9c-8,3.5-16.2,7.1-32.4,7.1s-24.4-3.6-32.4-7.1c-8.1-3.6-15.8-6.9-31.6-6.9s-23.5,3.4-31.6,6.9c-8,3.5-16.2,7.1-32.4,7.1s-24.4-3.6-32.4-7.1c-8.1-3.6-15.8-6.9-31.6-6.9s-23.5,3.4-31.6,6.9c-8,3.5-16.2,7.1-32.4,7.1s-24.4-3.6-32.4-7.1c-8.1-3.6-15.8-6.9-31.6-6.9s-23.5,3.4-31.6,6.9c-8,3.5-16.2,7.1-32.4,7.1s-24.4-3.6-32.4-7.1c-8.1-3.6-15.8-6.9-31.6-6.9s-23.5,3.4-31.6,6.9c-8,3.5-16.2,7.1-32.4,7.1s-24.4-3.6-32.4-7.1c-8.1-3.6-15.8-6.9-31.6-6.9s-23.5,3.4-31.6,6.9c-8,3.5-16.2,7.1-32.4,7.1s-24.4-3.6-32.4-7.1c-8.1-3.6-15.8-6.9-31.6-6.9s-23.5,3.4-31.6,6.9c-8,3.5-16.2,7.1-32.4,7.1s-24.4-3.6-32.4-7.1c-8.1-3.6-15.8-6.9-31.6-6.9s-23.5,3.4-31.6,6.9c-8,3.5-16.2,7.1-32.4,7.1s-24.4-3.6-32.4-7.1c-8.1-3.6-15.8-6.9-31.6-6.9s-23.5,3.4-31.6,6.9C88.5,272.4,80.2,276,64,276s-24.4-3.6-32.4-7.1C23.5,265.4,15.8,262,0,262v-2c16.2,0,24.4,3.6,32.4,7.1,8.1,3.6,15.8,6.9,31.6,6.9s23.5-3.4,31.6-6.9c8-3.5,16.2-7.1,32.4-7.1s24.4,3.6,32.4,7.1c8.1,3.6,15.8,6.9,31.6,6.9s23.5-3.4,31.6-6.9c8-3.5,16.2-7.1,32.4-7.1s24.4,3.6,32.4,7.1c8.1,3.6,15.8,6.9,31.6,6.9s23.5-3.4,31.6-6.9c8-3.5,16.2-7.1,32.4-7.1s24.4,3.6,32.4,7.1c8.1,3.6,15.8,6.9,31.6,6.9s23.5-3.4,31.6-6.9c8-3.5,16.2-7.1,32.4-7.1s24.4,3.6,32.4,7.1c8.1,3.6,15.8,6.9,31.6,6.9s23.5-3.4,31.6-6.9c8-3.5,16.2-7.1,32.4-7.1s24.4,3.6,32.4,7.1c8.1,3.6,15.8,6.9,31.6,6.9s23.5-3.4,31.6-6.9c8-3.5,16.2-7.1,32.4-7.1s24.4,3.6,32.4,7.1c8.1,3.6,15.8,6.9,31.6,6.9s23.5-3.4,31.6-6.9c8-3.5,16.2-7.1,32.4-7.1s24.4,3.6,32.4,7.1c8.1,3.6,15.8,6.9,31.6,6.9s23.5-3.4,31.6-6.9c8-3.5,16.2-7.1,32.4-7.1s24.4,3.6,32.4,7.1c8.1,3.6,15.8,6.9,31.6,6.9s23.5-3.4,31.6-6.9c8-3.5,16.2-7.1,32.4-7.1s24.4,3.6,32.4,7.1c8.1,3.6,15.8,6.9,31.6,6.9s23.5-3.4,31.6-6.9c8-3.5,16.2-7.1,32.4-7.1s24.4,3.6,32.4,7.1c8.1,3.6,15.8,6.9,31.6,6.9s23.5-3.4,31.6-6.9c8-3.5,16.2-7.1,32.4-7.1s24.4,3.6,32.4,7.1c8.1,3.6,15.8,6.9,31.6,6.9s23.5-3.4,31.6-6.9c8-3.5,16.2-7.1,32.4-7.1s24.4,3.6,32.4,7.1c8.1,3.6,15.8,6.9,31.6,6.9s23.5-3.4,31.6-6.9c8-3.5,16.2-7.1,32.4-7.1s24.4,3.6,32.4,7.1c8.1,3.6,15.8,6.9,31.6,6.9s23.5-3.4,31.6-6.9c8-3.5,16.2-7.1,32.4-7.1s24.4,3.6,32.4,7.1c8.1,3.6,15.8,6.9,31.6,6.9s23.5-3.4,31.6-6.9c8-3.5,16.2-7.1,32.4-7.1v2c-15.8,0-23.5,3.4-31.6,6.9C1880.4,272.4,1872.2,276,1856,276Z" transform="translate(2.901 -7.1)"/></g><path id="scene-main-water-wave" class="scene-main-cls-7" d="M1920,310.5c-11.9,0-18-3.1-23.9-6.1s-11.5-5.9-23-5.9-17.1,2.9-23,5.9-11.9,6.1-23.9,6.1c-11.9,0-18-3.1-23.9-6.1s-11.5-5.9-23-5.9-17.1,2.9-23,5.9-11.9,6.1-23.9,6.1-18-3.1-23.9-6.1-11.5-5.9-23-5.9-17.1,2.9-23,5.9-11.9,6.1-23.9,6.1-18-3.1-23.9-6.1-11.5-5.9-23-5.9-17.1,2.9-23,5.9-11.9,6.1-23.9,6.1-18-3.1-23.9-6.1-11.5-5.9-23-5.9-17.1,2.9-23,5.9-11.9,6.1-23.9,6.1-18-3.1-23.9-6.1-11.5-5.9-23-5.9-17.1,2.9-23,5.9-11.9,6.1-23.9,6.1-18-3.1-23.9-6.1-11.5-5.9-23-5.9-17.1,2.9-23,5.9-11.9,6.1-23.9,6.1-18-3.1-23.9-6.1-11.5-5.9-23-5.9-17.1,2.9-23,5.9-11.9,6.1-23.9,6.1-18-3.1-23.9-6.1-11.5-5.9-23-5.9-17.1,2.9-23,5.9-11.9,6.1-23.9,6.1-18-3.1-23.9-6.1-11.5-5.9-23-5.9-17,2.9-23,5.9c-5.9,3-11.9,6.1-23.9,6.1s-18-3.1-23.9-6.1-11.5-5.9-23-5.9-17,2.9-23,5.9c-5.9,3-11.9,6.1-23.9,6.1s-18-3.1-23.9-6.1-11.5-5.9-23-5.9-17,2.9-23,5.9c-5.9,3-11.9,6.1-23.9,6.1s-18-3.1-23.9-6.1-11.5-5.9-23-5.9-17,2.9-23,5.9c-5.9,3-11.9,6.1-23.9,6.1s-18-3.1-23.9-6.1-11.5-5.9-23-5.9-17,2.9-23,5.9c-5.9,3-11.9,6.1-23.9,6.1s-18-3.1-23.9-6.1-11.5-5.9-23-5.9-17,2.9-23,5.9c-5.9,3-11.9,6.1-23.9,6.1s-18-3.1-23.9-6.1-11.5-5.9-23-5.9-17,2.9-23,5.9c-5.9,3-11.9,6.1-23.9,6.1s-18-3.1-23.9-6.1-11.5-5.9-23-5.9-17,2.9-23,5.9c-5.9,3-11.9,6.1-23.9,6.1s-18-3.1-23.9-6.1-11.5-5.9-23-5.9-17,2.9-23,5.9c-5.9,3-11.9,6.1-23.9,6.1s-18-3.1-23.9-6.1-11.5-5.9-23-5.9-17.1,2.9-23,5.9-11.9,6.1-23.9,6.1-18-3.1-23.9-6.1-11.5-5.9-23-5.9-17.1,2.9-23,5.9S56,310.5,44,310.5s-18-3.1-23.9-6.1-11.5-5.9-23-5.9v-2c11.9,0,18,3.1,23.9,6.1s11.5,5.9,23,5.9,17-2.9,23-5.9c5.9-3,11.9-6.1,23.9-6.1s18,3.1,23.9,6.1,11.5,5.9,23,5.9,17.1-2.9,23-5.9,11.9-6.1,23.9-6.1,18,3.1,23.9,6.1,11.5,5.9,23,5.9,17.1-2.9,23-5.9,11.9-6.1,23.9-6.1,18,3.1,23.9,6.1,11.5,5.9,23,5.9,17-2.9,23-5.9c5.9-3,11.9-6.1,23.9-6.1s18,3.1,23.9,6.1,11.5,5.9,23,5.9,17-2.9,23-5.9c5.9-3,11.9-6.1,23.9-6.1s18,3.1,23.9,6.1,11.5,5.9,23,5.9,17-2.9,23-5.9c5.9-3,11.9-6.1,23.9-6.1s18,3.1,23.9,6.1,11.5,5.9,23,5.9,17-2.9,23-5.9c5.9-3,11.9-6.1,23.9-6.1s18,3.1,23.9,6.1,11.5,5.9,23,5.9,17-2.9,23-5.9c5.9-3,11.9-6.1,23.9-6.1s18,3.1,23.9,6.1,11.5,5.9,23,5.9,17-2.9,23-5.9c5.9-3,11.9-6.1,23.9-6.1s18,3.1,23.9,6.1,11.5,5.9,23,5.9,17-2.9,23-5.9c5.9-3,11.9-6.1,23.9-6.1s18,3.1,23.9,6.1,11.5,5.9,23,5.9,17-2.9,23-5.9c5.9-3,11.9-6.1,23.9-6.1,11.9,0,18,3.1,23.9,6.1s11.5,5.9,23,5.9,17.1-2.9,23-5.9,11.9-6.1,23.9-6.1,18,3.1,23.9,6.1,11.5,5.9,23,5.9,17.1-2.9,23-5.9,11.9-6.1,23.9-6.1,18,3.1,23.9,6.1,11.5,5.9,23,5.9,17.1-2.9,23-5.9,11.9-6.1,23.9-6.1,18,3.1,23.9,6.1,11.5,5.9,23,5.9,17.1-2.9,23-5.9,11.9-6.1,23.9-6.1,18,3.1,23.9,6.1,11.5,5.9,23,5.9,17.1-2.9,23-5.9,11.9-6.1,23.9-6.1,18,3.1,23.9,6.1,11.5,5.9,23,5.9,17.1-2.9,23-5.9,11.9-6.1,23.9-6.1,18,3.1,23.9,6.1,11.5,5.9,23,5.9,17.1-2.9,23-5.9,11.9-6.1,23.9-6.1,18,3.1,23.9,6.1,11.5,5.9,23,5.9,17.1-2.9,23-5.9,11.9-6.1,23.9-6.1,18,3.1,23.9,6.1,11.5,5.9,23,5.9,17.1-2.9,23-5.9,11.9-6.1,23.9-6.1c11.9,0,18,3.1,23.9,6.1s11.5,5.9,23,5.9Z" transform="translate(2.901 -7.1)"/></svg>
